inDegrees=no
num_controls=7
num_derivatives=13
num_iterations=93
num_multipliers=7
num_parameters=0
num_slacks=7
num_states=26
objective=0.444843
objective_accelerations=0.058027
objective_balance=0.003337
objective_effort=0.023110
objective_height=0.354894
objective_ligament=0.005476
solver_duration=1347.202081
status=Solve_Succeeded
success=true
DataType=double
version=3
OpenSimVersion=4.5
endheader
time	/jointset/ground_pelvis/pelvis_tilt/value	/jointset/ground_pelvis/pelvis_tx/value	/jointset/ground_pelvis/pelvis_ty/value	/jointset/hip_l/hip_flexion_l/value	/jointset/hip_l/hip_adduction_l/value	/jointset/hip_l/hip_rotation_l/value	/jointset/back/lumbar_extension/value	/jointset/patellofemoral_l/patellar_flexion_l/value	/jointset/knee_l/knee_flexion_l/value	/jointset/knee_l/knee_adduction_l/value	/jointset/knee_l/knee_rotation_l/value	/jointset/ankle_l/ankle_angle_l/value	/jointset/subtalar_l/subtalar_angle_l/value	/jointset/ground_pelvis/pelvis_tilt/speed	/jointset/ground_pelvis/pelvis_tx/speed	/jointset/ground_pelvis/pelvis_ty/speed	/jointset/hip_l/hip_flexion_l/speed	/jointset/hip_l/hip_adduction_l/speed	/jointset/hip_l/hip_rotation_l/speed	/jointset/back/lumbar_extension/speed	/jointset/patellofemoral_l/patellar_flexion_l/speed	/jointset/knee_l/knee_flexion_l/speed	/jointset/knee_l/knee_adduction_l/speed	/jointset/knee_l/knee_rotation_l/speed	/jointset/ankle_l/ankle_angle_l/speed	/jointset/subtalar_l/subtalar_angle_l/speed	/forceset/tau_hip_flexion_l	/forceset/tau_hip_adduction_l	/forceset/tau_hip_rotation_l	/forceset/tau_knee_flexion_l	/forceset/tau_ankle_angle_l	/forceset/tau_subtalar_angle_l	/forceset/tau_lumbar_extension	lambda_cid13_p0	lambda_cid13_p1	lambda_cid13_p2	lambda_cid13_p3	lambda_cid13_p4	lambda_cid13_p5	lambda_cid14_p0	/jointset/ground_pelvis/pelvis_tilt/accel	/jointset/ground_pelvis/pelvis_tx/accel	/jointset/ground_pelvis/pelvis_ty/accel	/jointset/hip_l/hip_flexion_l/accel	/jointset/hip_l/hip_adduction_l/accel	/jointset/hip_l/hip_rotation_l/accel	/jointset/back/lumbar_extension/accel	/jointset/patellofemoral_l/patellar_flexion_l/accel	/jointset/knee_l/knee_flexion_l/accel	/jointset/knee_l/knee_adduction_l/accel	/jointset/knee_l/knee_rotation_l/accel	/jointset/ankle_l/ankle_angle_l/accel	/jointset/subtalar_l/subtalar_angle_l/accel	gamma_cid13_p0	gamma_cid13_p1	gamma_cid13_p2	gamma_cid13_p3	gamma_cid13_p4	gamma_cid13_p5	gamma_cid14_p0
0.5	-0.3409959552617249	-0.03677741039155567	0.7583096669779861	1.105061702313322	-0.4371137233799712	-0.2193370193178802	-0.2538829840399653	0.8177483304350567	0.8177483304348726	-0.125062186324371	-0.1584263197144518	0.1148954891465274	-0.02909753276414346	-0.7728399266575179	-0.2078790141705384	-0.5397754120952671	2.492969627174656	-0.20643546661091	0.7528353456043204	-0.1190533450387462	2.021811170565438	2.021811170565478	0.1369525654578937	-0.08921354225393259	0.4778120058821649	0.008937925371483229	-0.1686793624732497	0.0278155222323747	-0.01143382699605143	-0.220196371245131	0.06905567642945344	0.03712566663294369	0.1668492344865761	-10.60722664882744	-17.23424127830168	5.801648187318289	-7.006772289479159	-521.5015753715211	-56.13314907117216	-24.63216379811309	0.7962759744128672	0.6153536346790931	-0.4732446205894474	-1.35720742130827	0.7420864845499967	-0.1995074776732327	1.064252674359111	-1.270059333567434	-1.270059333567451	0.07785050771789907	0.1851643891040296	-0.5066056367149006	0.5518146007701075	-5.927084907015568e-07	-4.804555669779587e-07	2.985346804769147e-06	1.562363735786008e-07	-6.769468222166322e-07	1.885768921203524e-08	-4.855412039994302e-07
0.51	-0.3486825978005079	-0.03882514994747773	0.7528894703079014	1.129918508972244	-0.4391421470955278	-0.2118175508434487	-0.2550213949675653	0.8378997370162117	0.8378997370161304	-0.1236931361369983	-0.1593088446785869	0.1196470540797841	-0.0289825309425908	-0.7643734941116057	-0.201648570834576	-0.5441451250945349	2.478039187074544	-0.1992304444583444	0.7509351527848608	-0.1086564664749003	2.008195746235095	2.008195746235115	0.1368710939083634	-0.08729542195249436	0.4724276165759844	0.01405570929362334	-0.1743922513383263	0.02860351403917066	-0.01148469396496178	-0.2227745232862968	0.06812941298836171	0.0375460675463971	0.1712352991422117	-11.10688376382804	-17.29869920334302	5.776930056021658	-6.884129999986782	-525.2748020784002	-55.81001780670834	-23.69801829496997	0.8890182373038501	0.6299719735259955	-0.4011479951130727	-1.6139244639942	0.7121929980684492	-0.2041794060638325	1.023261548326798	-1.448347009031265	-1.448347009034261	-0.04906263339822672	0.1951474031006265	-0.5653553999104601	0.4904681244278725	-5.795706747270324e-07	-3.780794886595537e-07	3.036748407772589e-06	1.808118749272664e-07	-6.544124254066206e-07	1.013707252318698e-07	-4.792577348704615e-07
0.52	-0.3562811377453065	-0.04080996861194595	0.7474291138367205	1.15461541879824	-0.4410980240060663	-0.2043208651416105	-0.2560566658893398	0.857906776748811	0.8579067767488308	-0.122324483994545	-0.1601721861292176	0.1243425751555107	-0.02881660971451835	-0.7552194078607546	-0.1952948358797698	-0.5478073723145074	2.460990260589169	-0.1919261056074331	0.7482787910861416	-0.09842534387387436	1.992937800854211	1.99293780085421	0.1368729564744438	-0.08537683955358005	0.4666032343761704	0.01912180667543983	-0.1801051402033925	0.02939150584596107	-0.01153556093388285	-0.225352675327463	0.06720314954726672	0.03796646845984231	0.1756213637978612	-11.60965239420628	-17.363555893285	5.753355236131931	-6.798129250441668	-529.1234875820346	-55.54984554430706	-22.76532669682037	0.9338067154006924	0.6400119584478656	-0.3317514647304088	-1.780904698361106	0.7619498242191562	-0.3507412535251463	1.03110148179514	-1.598563543675735	-1.59856354367574	0.09451733084001702	0.1852568085992316	-0.5946042154416157	0.541477292705383	-5.631853320733189e-07	-2.667792519128724e-07	3.072903447021651e-06	2.090856125191582e-07	-6.342375963921597e-07	1.837930384579916e-07	-4.687843072445012e-07
0.53	-0.3637849311604514	-0.04273074096850713	0.7419356921121534	1.17913163280032	-0.4429803804522953	-0.196853860606319	-0.2569905393212879	0.877753138671359	0.8777531386716171	-0.1209557593616577	-0.1610159255294883	0.1289776706639639	-0.02860031535363645	-0.7454343997733948	-0.1888488657091977	-0.5507550054195093	2.441914726518422	-0.1845366771833277	0.7450276830775969	-0.08839812111273244	1.976066429779735	1.976066429779699	0.1368556160590237	-0.0833584544341692	0.4603413388551832	0.02411728343960801	-0.1856313393952168	0.02999221958970424	-0.01152537586800111	-0.2280474285951211	0.06633679636155353	0.03819530889764902	0.1798069956553466	-12.0982798256678	-17.340855263999	5.708008084384089	-6.598437703672598	-532.9300602753825	-55.18119828334104	-21.83609729433711	1.016505998779533	0.6485497921574672	-0.2580988846155555	-2.02163556304146	0.7283357742285161	-0.3268617765607019	0.9812158837086632	-1.771554314033981	-1.771554314039295	-0.05224734698697524	0.2126379870887261	-0.653143801290752	0.4752878081304907	-5.442588003158829e-07	-1.689049021589638e-07	3.087266817786786e-06	2.335006782921652e-07	-6.121878078435433e-07	2.637242822030308e-07	-4.571555040839635e-07
0.54	-0.3711877428660468	-0.04458672157420349	0.73641642812629	1.203446939901372	-0.4447886633297379	-0.189422280391523	-0.2578256038835363	0.8974227607982207	0.8974227607987181	-0.119587685656776	-0.1618389793538706	0.1335479149010345	-0.02833472523714127	-0.7350230659509984	-0.1823364857068061	-0.5529758245737276	2.420808880383273	-0.1771113918503301	0.7411939269873893	-0.07866356993419162	1.957589841717241	1.95758984171717	0.1367427708734454	-0.08123972437568955	0.453632980099657	0.02898095779809458	-0.1911575385870236	0.03059293333344551	-0.0115151908020981	-0.2307421818627804	0.06547044317583772	0.03842414933545166	0.1839926275128508	-12.58969540282288	-17.31840421347869	5.663545357924535	-6.436628557442677	-536.8079560506217	-54.87349536966966	-20.91523016408136	1.059071862407979	0.6532939248117695	-0.186388674573717	-2.186967111241738	0.7691212059976001	-0.4672708698577457	0.9725671652749324	-1.919606941279254	-1.919606941279247	0.07541637680833722	0.2053257964129825	-0.6838968623493992	0.5151168115690616	-5.225207401883709e-07	-8.588472524812283e-08	3.077520257463321e-06	2.536465752442781e-07	-5.880635959805421e-07	3.408994490753829e-07	-4.442484130979359e-07
